<svg xmlns="http://www.w3.org/2000/svg" xmlns:xlink="http://www.w3.org/1999/xlink" width="2000" zoomAndPan="magnify" viewBox="0 0 1500 1499.999933" height="2000" preserveAspectRatio="xMidYMid meet" version="1.0"><defs><clipPath id="60130cdcb2"><path d="M 592 542 L 903.277344 542 L 903.277344 956.214844 L 592 956.214844 Z M 592 542 " clip-rule="nonzero"/></clipPath><clipPath id="361706c352"><path d="M 787 474 L 1106.371094 474 L 1106.371094 687 L 787 687 Z M 787 474 " clip-rule="nonzero"/></clipPath></defs><path fill="#050606" d="M 851.550781 555.996094 C 851.605469 505.792969 806.125 448.648438 749.957031 448.59375 C 693.78125 448.53125 648.183594 505.578125 648.132812 555.78125 C 648.082031 605.988281 693.65625 564.773438 749.832031 564.832031 C 806.007812 564.886719 851.496094 606.203125 851.550781 555.996094 " fill-opacity="1" fill-rule="nonzero"/><path fill="#050606" d="M 806.683594 568.320312 C 817.664062 571.453125 827.140625 574.15625 833.875 574.164062 C 838.722656 574.167969 844.753906 574.175781 844.769531 555.988281 C 844.820312 510.425781 802.53125 455.351562 749.945312 455.296875 C 697.359375 455.238281 654.960938 510.226562 654.914062 555.792969 C 654.890625 573.976562 660.925781 573.984375 665.769531 573.988281 C 672.503906 573.992188 681.984375 571.308594 692.972656 568.203125 C 708.855469 563.699219 728.625 558.105469 749.835938 558.128906 C 771.046875 558.144531 790.808594 563.789062 806.683594 568.320312 Z M 641.347656 555.773438 C 641.40625 503.054688 688.859375 441.824219 749.960938 441.886719 C 811.058594 441.953125 858.386719 503.28125 858.335938 556 C 858.3125 576.96875 850.078125 587.59375 833.863281 587.574219 C 825.214844 587.570312 814.886719 584.617188 802.921875 581.207031 C 787.085938 576.6875 769.125 571.554688 749.824219 571.539062 C 730.523438 571.515625 712.554688 576.605469 696.703125 581.09375 C 684.734375 584.480469 674.402344 587.410156 665.75 587.398438 C 649.535156 587.382812 641.328125 576.742188 641.347656 555.773438 " fill-opacity="1" fill-rule="nonzero"/><path fill="#9fc2ff" d="M 748.347656 543.480469 C 830.316406 543.566406 896.710938 604.410156 896.601562 705.390625 C 896.503906 798.546875 848.917969 875.382812 775.800781 886.671875 C 769.652344 887.621094 724.660156 887.433594 717.734375 886.207031 C 645.824219 873.453125 599.660156 797.195312 599.757812 705.085938 C 599.863281 604.097656 666.375 543.390625 748.347656 543.480469 " fill-opacity="1" fill-rule="nonzero"/><g clip-path="url(#60130cdcb2)"><path fill="#050606" d="M 606.175781 711.308594 C 606.082031 802.257812 652.292969 873.988281 718.5625 885.742188 C 729.105469 887.617188 768.292969 887.128906 774.402344 886.183594 C 842.050781 875.742188 889.367188 803.949219 889.464844 711.601562 C 889.554688 620.355469 831.375 556.566406 747.980469 556.480469 C 664.585938 556.390625 606.273438 620.0625 606.175781 711.308594 Z M 719.261719 901.785156 C 717.429688 900.007812 715.058594 898.917969 712.558594 898.402344 C 677.382812 891.105469 647.402344 869.339844 625.667969 835.265625 C 604.304688 801.765625 592.566406 757.742188 592.613281 711.289062 C 592.667969 661.261719 608.398438 618.589844 638.121094 587.878906 C 666.222656 558.839844 705.242188 542.871094 747.992188 542.917969 C 790.746094 542.960938 829.734375 559.015625 857.773438 588.113281 C 887.425781 618.882812 903.074219 661.589844 903.023438 711.617188 C 902.921875 807.480469 854.308594 882.898438 783.871094 898.214844 C 780.28125 898.996094 777.164062 901.191406 775.199219 904.296875 C 763.230469 923.210938 760.804688 959.460938 750.753906 955.980469 C 736.703125 951.121094 734.738281 916.777344 719.261719 901.785156 " fill-opacity="1" fill-rule="nonzero"/></g><path fill="#050606" d="M 631.484375 822.039062 C 762.625 762.644531 866.269531 817.496094 867.304688 818.058594 L 894.582031 760.445312 C 889.351562 757.605469 764.667969 691.589844 608.03125 762.53125 L 631.484375 822.039062 " fill-opacity="1" fill-rule="nonzero"/><path fill="#050606" d="M 595.238281 704.347656 C 726.382812 644.113281 895.578125 697.515625 896.605469 698.085938 L 880.101562 633.589844 C 874.867188 630.699219 774.5625 554.789062 617.921875 626.734375 L 595.238281 704.347656 " fill-opacity="1" fill-rule="nonzero"/><path fill="#050606" d="M 694.378906 474.601562 L 707.78125 473.070312 C 707.566406 472.0625 702.40625 448.089844 692.015625 423.097656 C 677.21875 387.53125 660.164062 369.109375 639.867188 366.78125 C 620.390625 364.554688 601.515625 377.28125 582.152344 405.699219 L 594.285156 410.15625 C 610.210938 386.777344 625.222656 375.183594 637.785156 376.613281 C 664.457031 379.667969 686.652344 438.339844 694.378906 474.601562 " fill-opacity="1" fill-rule="nonzero"/><path fill="#050606" d="M 582.007812 392.640625 C 576.835938 407.101562 582.753906 420.78125 595.230469 423.191406 C 607.710938 425.59375 622.015625 415.820312 627.191406 401.355469 C 632.359375 386.886719 626.445312 373.207031 613.964844 370.804688 C 601.488281 368.394531 587.175781 378.167969 582.007812 392.640625 " fill-opacity="1" fill-rule="nonzero"/><path fill="#050606" d="M 802.453125 474.714844 L 789.058594 473.15625 C 789.28125 472.148438 794.484375 448.1875 804.929688 423.21875 C 819.800781 387.679688 836.898438 369.292969 857.191406 367.015625 C 876.671875 364.820312 895.527344 377.59375 914.828125 406.046875 L 902.6875 410.472656 C 886.808594 387.066406 871.820312 375.441406 859.261719 376.847656 C 832.582031 379.84375 810.261719 438.460938 802.453125 474.714844 " fill-opacity="1" fill-rule="nonzero"/><path fill="#050606" d="M 915.003906 392.984375 C 920.144531 407.460938 914.195312 421.125 901.714844 423.507812 C 889.230469 425.886719 874.941406 416.085938 869.800781 401.609375 C 864.660156 387.128906 870.609375 373.464844 883.089844 371.085938 C 895.570312 368.699219 909.859375 378.507812 915.003906 392.984375 " fill-opacity="1" fill-rule="nonzero"/><path fill="#ffffff" d="M 793.691406 668.695312 C 793.691406 668.695312 916.367188 584.554688 989.769531 639.402344 C 1063.164062 694.253906 1045.402344 765.902344 980.539062 784.144531 C 915.667969 802.394531 793.691406 668.695312 793.691406 668.695312 " fill-opacity="1" fill-rule="nonzero"/><path fill="#050606" d="M 803.285156 669.933594 C 825.492188 693.097656 912.03125 779.46875 967.398438 779.53125 C 971.554688 779.535156 975.460938 779.027344 979.019531 778.03125 C 1007.386719 770.050781 1026.726562 750.980469 1030.757812 727.027344 C 1035.4375 699.21875 1019.246094 669.164062 986.34375 644.582031 C 970.910156 633.046875 951.753906 627.1875 929.398438 627.164062 C 877.371094 627.109375 821.769531 658.515625 803.285156 669.933594 Z M 789.421875 673.101562 L 784.363281 667.558594 L 790.46875 663.375 C 793.378906 661.375 862.589844 614.433594 929.410156 614.507812 C 954.257812 614.527344 975.714844 621.164062 993.191406 634.21875 C 1030.039062 661.761719 1048.003906 696.394531 1042.476562 729.253906 C 1037.609375 758.1875 1015.023438 780.996094 982.054688 790.265625 C 977.507812 791.550781 972.570312 792.195312 967.386719 792.191406 C 967.382812 792.191406 967.386719 792.191406 967.386719 792.191406 C 898.785156 792.117188 793.851562 677.960938 789.421875 673.101562 " fill-opacity="1" fill-rule="nonzero"/><path fill="#ffffff" d="M 795.355469 666.167969 C 795.355469 666.167969 866.394531 480.457031 982.253906 480.546875 C 1098.117188 480.644531 1129.296875 570.402344 1073.429688 640.855469 C 1017.566406 711.3125 795.355469 666.167969 795.355469 666.167969 " fill-opacity="1" fill-rule="nonzero"/><g clip-path="url(#361706c352)"><path fill="#050606" d="M 850.285156 576.878906 C 826.183594 611.53125 810.117188 646.597656 803.835938 661.335938 C 823.535156 664.878906 879.757812 674.019531 936.242188 674.082031 C 936.25 674.082031 936.253906 674.082031 936.253906 674.082031 C 1003.613281 674.148438 1049.476562 661.246094 1068.882812 636.777344 C 1093.761719 605.40625 1101.011719 569.253906 1088.28125 540.082031 C 1073.550781 506.324219 1034.921875 486.933594 982.246094 486.878906 C 924.957031 486.835938 878.863281 535.796875 850.285156 576.878906 Z M 794.234375 672.382812 L 787.101562 670.941406 L 789.839844 663.78125 C 790.574219 661.855469 808.25 616.085938 840.566406 569.566406 C 883.925781 507.148438 932.921875 474.179688 982.320312 474.21875 C 1039.757812 474.28125 1082.316406 496.347656 1099.078125 534.753906 C 1113.808594 568.507812 1105.921875 609.699219 1077.980469 644.9375 C 1055.925781 672.75 1008.238281 686.8125 936.242188 686.742188 C 936.238281 686.742188 936.242188 686.742188 936.230469 686.742188 C 865.332031 686.667969 794.9375 672.53125 794.234375 672.382812 " fill-opacity="1" fill-rule="nonzero"/></g><path fill="#ffffff" d="M 706.222656 668.695312 C 706.222656 668.695312 583.550781 584.554688 510.152344 639.402344 C 436.75 694.253906 454.511719 765.902344 519.382812 784.144531 C 584.253906 802.394531 706.222656 668.695312 706.222656 668.695312 " fill-opacity="1" fill-rule="nonzero"/><path fill="#050606" d="M 570.523438 627.164062 C 548.167969 627.1875 529.003906 633.046875 513.574219 644.582031 C 480.667969 669.164062 464.480469 699.21875 469.15625 727.027344 C 473.191406 750.980469 492.53125 770.050781 520.90625 778.03125 C 524.457031 779.027344 528.367188 779.535156 532.515625 779.53125 C 587.890625 779.46875 674.421875 693.097656 696.632812 669.933594 C 678.144531 658.515625 622.550781 627.109375 570.523438 627.164062 Z M 532.535156 792.191406 C 532.527344 792.191406 532.535156 792.191406 532.527344 792.191406 C 527.347656 792.195312 522.410156 791.550781 517.859375 790.265625 C 484.894531 780.996094 462.308594 758.1875 457.445312 729.253906 C 451.910156 696.394531 469.882812 661.761719 506.722656 634.21875 C 524.203125 621.164062 545.65625 614.527344 570.507812 614.507812 C 637.328125 614.433594 706.535156 661.375 709.449219 663.375 L 715.550781 667.558594 L 710.5 673.101562 C 706.066406 677.960938 601.132812 792.117188 532.535156 792.191406 " fill-opacity="1" fill-rule="nonzero"/><path fill="#ffffff" d="M 704.566406 666.167969 C 704.566406 666.167969 633.519531 480.457031 517.664062 480.546875 C 401.800781 480.644531 370.621094 570.402344 426.484375 640.855469 C 482.355469 711.3125 704.566406 666.167969 704.566406 666.167969 " fill-opacity="1" fill-rule="nonzero"/><path fill="#050606" d="M 517.667969 486.878906 C 464.996094 486.933594 426.367188 506.324219 411.636719 540.082031 C 398.910156 569.253906 406.15625 605.40625 431.03125 636.777344 C 450.441406 661.246094 496.304688 674.148438 563.664062 674.082031 C 563.664062 674.082031 563.667969 674.082031 563.671875 674.082031 C 620.160156 674.019531 676.386719 664.878906 696.082031 661.335938 C 689.796875 646.597656 673.734375 611.53125 649.628906 576.878906 C 621.054688 535.796875 574.964844 486.835938 517.667969 486.878906 Z M 563.683594 686.742188 C 563.679688 686.742188 563.679688 686.742188 563.671875 686.742188 C 491.675781 686.8125 443.992188 672.75 421.9375 644.9375 C 393.992188 609.699219 386.109375 568.507812 400.839844 534.753906 C 417.597656 496.347656 460.160156 474.28125 517.601562 474.21875 C 566.992188 474.179688 615.992188 507.148438 659.347656 569.566406 C 691.664062 616.085938 709.339844 661.855469 710.082031 663.78125 L 712.8125 670.941406 L 705.6875 672.382812 C 704.980469 672.53125 634.585938 686.667969 563.683594 686.742188 " fill-opacity="1" fill-rule="nonzero"/></svg>